<mxfile host="app.diagrams.net" modified="2023-11-16T12:42:50.220Z" agent="Mozilla/5.0 (Windows NT 10.0; Win64; x64) AppleWebKit/537.36 (KHTML, like Gecko) Chrome/119.0.0.0 Safari/537.36" etag="W_3ZzpmwqSuP-1jrLoqs" version="22.1.2" type="github">
  <diagram name="Page-1" id="2YBvvXClWsGukQMizWep">
    <mxGraphModel dx="1235" dy="733" grid="1" gridSize="10" guides="1" tooltips="1" connect="1" arrows="1" fold="1" page="1" pageScale="1" pageWidth="850" pageHeight="1100" math="0" shadow="0">
      <root>
        <mxCell id="0" />
        <mxCell id="1" parent="0" />
        <mxCell id="g_tPpGAOfdIyaXea1qWz-1" value="&lt;font color=&quot;#7ea6e0&quot;&gt;CLIENT 1&lt;/font&gt;" style="shape=umlLifeline;perimeter=lifelinePerimeter;whiteSpace=wrap;html=1;container=0;dropTarget=0;collapsible=0;recursiveResize=0;outlineConnect=0;portConstraint=eastwest;newEdgeStyle={&quot;edgeStyle&quot;:&quot;elbowEdgeStyle&quot;,&quot;elbow&quot;:&quot;vertical&quot;,&quot;curved&quot;:0,&quot;rounded&quot;:0};" vertex="1" parent="1">
          <mxGeometry x="210" y="30" width="100" height="850" as="geometry" />
        </mxCell>
        <mxCell id="g_tPpGAOfdIyaXea1qWz-2" value="" style="html=1;points=[];perimeter=orthogonalPerimeter;outlineConnect=0;targetShapes=umlLifeline;portConstraint=eastwest;newEdgeStyle={&quot;edgeStyle&quot;:&quot;elbowEdgeStyle&quot;,&quot;elbow&quot;:&quot;vertical&quot;,&quot;curved&quot;:0,&quot;rounded&quot;:0};" vertex="1" parent="g_tPpGAOfdIyaXea1qWz-1">
          <mxGeometry x="45" y="80" width="10" height="750" as="geometry" />
        </mxCell>
        <mxCell id="g_tPpGAOfdIyaXea1qWz-3" value="&lt;font color=&quot;#ea6b66&quot;&gt;SERVER&lt;/font&gt;" style="shape=umlLifeline;perimeter=lifelinePerimeter;whiteSpace=wrap;html=1;container=0;dropTarget=0;collapsible=0;recursiveResize=0;outlineConnect=0;portConstraint=eastwest;newEdgeStyle={&quot;edgeStyle&quot;:&quot;elbowEdgeStyle&quot;,&quot;elbow&quot;:&quot;vertical&quot;,&quot;curved&quot;:0,&quot;rounded&quot;:0};" vertex="1" parent="1">
          <mxGeometry x="390" y="30" width="100" height="850" as="geometry" />
        </mxCell>
        <mxCell id="g_tPpGAOfdIyaXea1qWz-4" value="" style="html=1;points=[];perimeter=orthogonalPerimeter;outlineConnect=0;targetShapes=umlLifeline;portConstraint=eastwest;newEdgeStyle={&quot;edgeStyle&quot;:&quot;elbowEdgeStyle&quot;,&quot;elbow&quot;:&quot;vertical&quot;,&quot;curved&quot;:0,&quot;rounded&quot;:0};" vertex="1" parent="g_tPpGAOfdIyaXea1qWz-3">
          <mxGeometry x="45" y="60" width="10" height="770" as="geometry" />
        </mxCell>
        <mxCell id="g_tPpGAOfdIyaXea1qWz-5" value="Waiting for players..." style="html=1;dropTarget=0;whiteSpace=wrap;" vertex="1" parent="1">
          <mxGeometry x="375" y="120" width="130" height="30" as="geometry" />
        </mxCell>
        <mxCell id="g_tPpGAOfdIyaXea1qWz-18" value="" style="html=1;verticalLabelPosition=bottom;labelBackgroundColor=#ffffff;verticalAlign=top;shadow=0;dashed=0;strokeWidth=2;shape=mxgraph.ios7.misc.loading_circle;" vertex="1" parent="1">
          <mxGeometry x="320" y="115" width="40" height="40" as="geometry" />
        </mxCell>
        <mxCell id="g_tPpGAOfdIyaXea1qWz-20" value="&lt;font style=&quot;font-size: 19px;&quot;&gt;Game starts&lt;/font&gt;" style="rounded=1;whiteSpace=wrap;html=1;fillColor=#dae8fc;strokeColor=#6c8ebf;" vertex="1" parent="1">
          <mxGeometry x="151.88" y="710" width="402.5" height="60" as="geometry" />
        </mxCell>
        <mxCell id="g_tPpGAOfdIyaXea1qWz-21" value="&lt;font color=&quot;#ff6666&quot;&gt;Server sends UDP datagram:&lt;/font&gt;" style="verticalAlign=bottom;html=1;endArrow=none;edgeStyle=none;labelBackgroundColor=none;fontSize=10;strokeWidth=2;rounded=0;fillColor=#f8cecc;strokeColor=#b85450;" edge="1" parent="1">
          <mxGeometry relative="1" as="geometry">
            <mxPoint x="570" y="230" as="sourcePoint" />
            <mxPoint x="730" y="230" as="targetPoint" />
          </mxGeometry>
        </mxCell>
        <mxCell id="g_tPpGAOfdIyaXea1qWz-22" value="&amp;lt;Rooms&amp;gt;&lt;br&gt;&lt;span style=&quot;&quot;&gt;&lt;span style=&quot;white-space: pre;&quot;&gt;&amp;nbsp;&amp;nbsp;&amp;nbsp;&amp;nbsp;&lt;/span&gt;&lt;/span&gt;&amp;lt;Room indice=&quot;..&quot; numeroMembri=&quot;...&quot;&amp;gt;&amp;lt;/Room&amp;gt;&lt;br&gt;&lt;span style=&quot;white-space: pre;&quot;&gt;&#x9;&lt;/span&gt;...&lt;br&gt;&amp;lt;/Rooms&amp;gt;" style="resizable=0;html=1;align=left;verticalAlign=top;labelBackgroundColor=none;fontSize=10;" connectable="0" vertex="1" parent="g_tPpGAOfdIyaXea1qWz-21">
          <mxGeometry x="-1" relative="1" as="geometry">
            <mxPoint x="-25" as="offset" />
          </mxGeometry>
        </mxCell>
        <mxCell id="g_tPpGAOfdIyaXea1qWz-23" value="TO DO:&amp;nbsp;&lt;br&gt;- Game sequence diagram&lt;br&gt;&lt;br&gt;-Creating room sequence diagram" style="whiteSpace=wrap;html=1;shape=mxgraph.basic.document" vertex="1" parent="1">
          <mxGeometry x="30" y="910" width="200" height="80" as="geometry" />
        </mxCell>
        <mxCell id="g_tPpGAOfdIyaXea1qWz-24" value="" style="endArrow=none;dashed=1;html=1;dashPattern=1 3;strokeWidth=2;rounded=0;fillColor=#f8cecc;strokeColor=#b85450;" edge="1" parent="1">
          <mxGeometry width="50" height="50" relative="1" as="geometry">
            <mxPoint x="450" y="230" as="sourcePoint" />
            <mxPoint x="570" y="230" as="targetPoint" />
          </mxGeometry>
        </mxCell>
        <mxCell id="g_tPpGAOfdIyaXea1qWz-25" value="&lt;font color=&quot;#ea6b66&quot;&gt;Server sends UDP datagram:&lt;/font&gt;" style="verticalAlign=bottom;html=1;endArrow=none;edgeStyle=none;labelBackgroundColor=none;fontSize=10;strokeWidth=2;rounded=0;fillColor=#f8cecc;strokeColor=#b85450;" edge="1" parent="1">
          <mxGeometry relative="1" as="geometry">
            <mxPoint x="590" y="804.7400000000001" as="sourcePoint" />
            <mxPoint x="750" y="804.7400000000001" as="targetPoint" />
          </mxGeometry>
        </mxCell>
        <mxCell id="g_tPpGAOfdIyaXea1qWz-26" value="&amp;lt;Carte&amp;gt;&lt;br&gt;&lt;span style=&quot;white-space: pre;&quot;&gt;&#x9;&lt;/span&gt;&amp;lt;Carta&amp;gt;&lt;br&gt;&lt;span style=&quot;white-space: pre;&quot;&gt;&#x9;&lt;span style=&quot;white-space: pre;&quot;&gt;&#x9;&lt;/span&gt;.&lt;/span&gt;..&lt;br&gt;&lt;span style=&quot;white-space: pre;&quot;&gt;&#x9;&lt;/span&gt;&amp;lt;/Carta&amp;gt;&lt;br&gt;&lt;span style=&quot;white-space: pre;&quot;&gt;&#x9;&lt;/span&gt;...&lt;br&gt;&amp;lt;/Carte&amp;gt;" style="resizable=0;html=1;align=left;verticalAlign=top;labelBackgroundColor=none;fontSize=10;" connectable="0" vertex="1" parent="g_tPpGAOfdIyaXea1qWz-25">
          <mxGeometry x="-1" relative="1" as="geometry">
            <mxPoint x="20" as="offset" />
          </mxGeometry>
        </mxCell>
        <mxCell id="g_tPpGAOfdIyaXea1qWz-27" value="" style="endArrow=none;dashed=1;html=1;dashPattern=1 3;strokeWidth=2;rounded=0;fillColor=#f8cecc;strokeColor=#b85450;" edge="1" parent="1">
          <mxGeometry width="50" height="50" relative="1" as="geometry">
            <mxPoint x="540" y="804.7400000000001" as="sourcePoint" />
            <mxPoint x="610" y="804.7400000000001" as="targetPoint" />
          </mxGeometry>
        </mxCell>
        <mxCell id="g_tPpGAOfdIyaXea1qWz-29" value="Wanna play" style="endArrow=classic;html=1;rounded=0;fillColor=#dae8fc;strokeColor=#6c8ebf;" edge="1" parent="1">
          <mxGeometry width="50" height="50" relative="1" as="geometry">
            <mxPoint x="260" y="190" as="sourcePoint" />
            <mxPoint x="439.5" y="190" as="targetPoint" />
          </mxGeometry>
        </mxCell>
        <mxCell id="g_tPpGAOfdIyaXea1qWz-30" value="Sends list of avaible rooms" style="endArrow=classic;html=1;rounded=0;fillColor=#f8cecc;strokeColor=#b85450;" edge="1" parent="1">
          <mxGeometry width="50" height="50" relative="1" as="geometry">
            <mxPoint x="439.5" y="230" as="sourcePoint" />
            <mxPoint x="260" y="230" as="targetPoint" />
          </mxGeometry>
        </mxCell>
        <mxCell id="g_tPpGAOfdIyaXea1qWz-36" value="Renders rooms on GUI" style="html=1;dropTarget=0;whiteSpace=wrap;fontSize=10;" vertex="1" parent="1">
          <mxGeometry x="195" y="300" width="130" height="20" as="geometry" />
        </mxCell>
        <mxCell id="g_tPpGAOfdIyaXea1qWz-37" value="" style="verticalAlign=bottom;html=1;endArrow=none;edgeStyle=none;labelBackgroundColor=none;fontSize=10;strokeWidth=2;rounded=0;" edge="1" parent="1">
          <mxGeometry relative="1" as="geometry">
            <mxPoint x="380" y="309.71999999999997" as="sourcePoint" />
            <mxPoint x="330" y="309.71999999999997" as="targetPoint" />
          </mxGeometry>
        </mxCell>
        <mxCell id="g_tPpGAOfdIyaXea1qWz-40" value="&amp;nbsp;(List box)" style="edgeLabel;html=1;align=center;verticalAlign=middle;resizable=0;points=[];" vertex="1" connectable="0" parent="g_tPpGAOfdIyaXea1qWz-37">
          <mxGeometry x="0.0826" y="1" relative="1" as="geometry">
            <mxPoint x="15" y="-1" as="offset" />
          </mxGeometry>
        </mxCell>
        <mxCell id="g_tPpGAOfdIyaXea1qWz-42" value="&lt;font style=&quot;font-size: 10px;&quot;&gt;Selects room&lt;/font&gt;" style="html=1;dropTarget=0;whiteSpace=wrap;" vertex="1" parent="1">
          <mxGeometry x="217.5" y="340" width="85" height="20" as="geometry" />
        </mxCell>
        <mxCell id="g_tPpGAOfdIyaXea1qWz-46" value="Sends selected room" style="endArrow=classic;html=1;rounded=0;fillColor=#dae8fc;strokeColor=#6c8ebf;" edge="1" parent="1">
          <mxGeometry width="50" height="50" relative="1" as="geometry">
            <mxPoint x="260" y="389" as="sourcePoint" />
            <mxPoint x="439.5" y="389" as="targetPoint" />
          </mxGeometry>
        </mxCell>
        <mxCell id="g_tPpGAOfdIyaXea1qWz-50" value="&lt;font&gt;Client sends UDP datagram:&lt;/font&gt;" style="verticalAlign=bottom;html=1;endArrow=none;edgeStyle=none;labelBackgroundColor=none;fontSize=10;strokeWidth=2;rounded=0;fillColor=#dae8fc;strokeColor=#6c8ebf;fontColor=#7EA6E0;" edge="1" parent="1">
          <mxGeometry relative="1" as="geometry">
            <mxPoint x="35" y="390" as="sourcePoint" />
            <mxPoint x="195" y="390" as="targetPoint" />
          </mxGeometry>
        </mxCell>
        <mxCell id="g_tPpGAOfdIyaXea1qWz-51" value="&amp;lt;Room indice=&quot;..&quot; numeroMembri=&quot;...&quot;&amp;gt;&amp;lt;/Room&amp;gt;" style="resizable=0;html=1;align=left;verticalAlign=top;labelBackgroundColor=none;fontSize=10;" connectable="0" vertex="1" parent="g_tPpGAOfdIyaXea1qWz-50">
          <mxGeometry x="-1" relative="1" as="geometry">
            <mxPoint x="-25" as="offset" />
          </mxGeometry>
        </mxCell>
        <mxCell id="g_tPpGAOfdIyaXea1qWz-52" value="" style="endArrow=none;dashed=1;html=1;dashPattern=1 3;strokeWidth=2;rounded=0;fillColor=#dae8fc;strokeColor=#6c8ebf;" edge="1" parent="1">
          <mxGeometry width="50" height="50" relative="1" as="geometry">
            <mxPoint x="195" y="390" as="sourcePoint" />
            <mxPoint x="255" y="390" as="targetPoint" />
          </mxGeometry>
        </mxCell>
        <mxCell id="g_tPpGAOfdIyaXea1qWz-57" value="Adds player to room" style="html=1;dropTarget=0;whiteSpace=wrap;fontSize=10;" vertex="1" parent="1">
          <mxGeometry x="375" y="430" width="130" height="20" as="geometry" />
        </mxCell>
        <mxCell id="g_tPpGAOfdIyaXea1qWz-60" value="Waiting for other players..." style="html=1;dropTarget=0;whiteSpace=wrap;" vertex="1" parent="1">
          <mxGeometry x="246.25" y="545" width="213.75" height="30" as="geometry" />
        </mxCell>
        <mxCell id="g_tPpGAOfdIyaXea1qWz-61" value="" style="html=1;verticalLabelPosition=bottom;labelBackgroundColor=#ffffff;verticalAlign=top;shadow=0;dashed=0;strokeWidth=2;shape=mxgraph.ios7.misc.loading_circle;" vertex="1" parent="1">
          <mxGeometry x="195" y="540" width="40" height="40" as="geometry" />
        </mxCell>
        <mxCell id="g_tPpGAOfdIyaXea1qWz-63" value="Notifies all room members&amp;nbsp;&lt;br&gt;a new player joined" style="html=1;dropTarget=0;whiteSpace=wrap;fontSize=10;" vertex="1" parent="1">
          <mxGeometry x="375" y="460" width="130" height="40" as="geometry" />
        </mxCell>
        <mxCell id="g_tPpGAOfdIyaXea1qWz-66" value="&lt;font color=&quot;#ff6666&quot;&gt;Server sends UDP datagram:&lt;/font&gt;" style="verticalAlign=bottom;html=1;endArrow=none;edgeStyle=none;labelBackgroundColor=none;fontSize=10;strokeWidth=2;rounded=0;fillColor=#f8cecc;strokeColor=#b85450;" edge="1" parent="1">
          <mxGeometry relative="1" as="geometry">
            <mxPoint x="570" y="479.58" as="sourcePoint" />
            <mxPoint x="730" y="479.58" as="targetPoint" />
          </mxGeometry>
        </mxCell>
        <mxCell id="g_tPpGAOfdIyaXea1qWz-67" value="&lt;span style=&quot;&quot;&gt;&lt;span style=&quot;white-space: pre;&quot;&gt;&amp;nbsp;&lt;/span&gt;&lt;/span&gt;&amp;lt;Room indice=&quot;..&quot; numeroMembri=&quot;...&quot;&amp;gt;&amp;lt;/Room&amp;gt;" style="resizable=0;html=1;align=left;verticalAlign=top;labelBackgroundColor=none;fontSize=10;" connectable="0" vertex="1" parent="g_tPpGAOfdIyaXea1qWz-66">
          <mxGeometry x="-1" relative="1" as="geometry">
            <mxPoint x="-25" as="offset" />
          </mxGeometry>
        </mxCell>
        <mxCell id="g_tPpGAOfdIyaXea1qWz-69" value="" style="endArrow=none;dashed=1;html=1;dashPattern=1 3;strokeWidth=2;rounded=0;fillColor=#f8cecc;strokeColor=#b85450;" edge="1" parent="1">
          <mxGeometry width="50" height="50" relative="1" as="geometry">
            <mxPoint x="510" y="479.58" as="sourcePoint" />
            <mxPoint x="560" y="480" as="targetPoint" />
          </mxGeometry>
        </mxCell>
        <mxCell id="g_tPpGAOfdIyaXea1qWz-81" value="" style="endArrow=none;dashed=1;html=1;dashPattern=1 3;strokeWidth=2;rounded=0;" edge="1" parent="1">
          <mxGeometry width="50" height="50" relative="1" as="geometry">
            <mxPoint x="205" y="479.58" as="sourcePoint" />
            <mxPoint x="375" y="479.58" as="targetPoint" />
          </mxGeometry>
        </mxCell>
        <mxCell id="g_tPpGAOfdIyaXea1qWz-84" value="Players will refresh room member counters" style="shape=note;whiteSpace=wrap;html=1;backgroundOutline=1;darkOpacity=0.05;fillColor=#d5e8d4;strokeColor=#82b366;" vertex="1" parent="1">
          <mxGeometry x="60" y="450" width="140" height="60" as="geometry" />
        </mxCell>
        <mxCell id="g_tPpGAOfdIyaXea1qWz-87" value="Other players join..." style="text;html=1;align=center;verticalAlign=middle;resizable=0;points=[];autosize=1;strokeColor=none;fillColor=none;" vertex="1" parent="1">
          <mxGeometry x="288.13" y="600" width="130" height="30" as="geometry" />
        </mxCell>
        <mxCell id="g_tPpGAOfdIyaXea1qWz-88" value="Wanna start" style="endArrow=classic;html=1;rounded=0;fillColor=#dae8fc;strokeColor=#6c8ebf;" edge="1" parent="1">
          <mxGeometry width="50" height="50" relative="1" as="geometry">
            <mxPoint x="263.38" y="660" as="sourcePoint" />
            <mxPoint x="442.88" y="660" as="targetPoint" />
          </mxGeometry>
        </mxCell>
        <mxCell id="g_tPpGAOfdIyaXea1qWz-91" value="&lt;font&gt;Client sends UDP datagram:&lt;/font&gt;" style="verticalAlign=bottom;html=1;endArrow=none;edgeStyle=none;labelBackgroundColor=none;fontSize=10;strokeWidth=2;rounded=0;fillColor=#dae8fc;strokeColor=#6c8ebf;fontColor=#7EA6E0;" edge="1" parent="1">
          <mxGeometry relative="1" as="geometry">
            <mxPoint x="35" y="660" as="sourcePoint" />
            <mxPoint x="195" y="660" as="targetPoint" />
          </mxGeometry>
        </mxCell>
        <mxCell id="g_tPpGAOfdIyaXea1qWz-92" value="&amp;lt;Start&amp;gt;&lt;br&gt;&lt;span style=&quot;&quot;&gt;&lt;span style=&quot;white-space: pre;&quot;&gt;&amp;nbsp;&amp;nbsp;&amp;nbsp;&amp;nbsp;&lt;/span&gt;&lt;/span&gt;&amp;lt;Room indice=&quot;..&quot; numeroMembri=&quot;...&quot;&amp;gt;&amp;lt;/Room&amp;gt;&lt;br&gt;&amp;lt;/Start&amp;gt;" style="resizable=0;html=1;align=left;verticalAlign=top;labelBackgroundColor=none;fontSize=10;" connectable="0" vertex="1" parent="g_tPpGAOfdIyaXea1qWz-91">
          <mxGeometry x="-1" relative="1" as="geometry">
            <mxPoint x="-25" as="offset" />
          </mxGeometry>
        </mxCell>
        <mxCell id="g_tPpGAOfdIyaXea1qWz-93" value="&lt;font&gt;Client sends UDP datagram:&lt;/font&gt;" style="verticalAlign=bottom;html=1;endArrow=none;edgeStyle=none;labelBackgroundColor=none;fontSize=10;strokeWidth=2;rounded=0;fillColor=#dae8fc;strokeColor=#6c8ebf;fontColor=#7EA6E0;" edge="1" parent="1">
          <mxGeometry relative="1" as="geometry">
            <mxPoint x="35" y="190" as="sourcePoint" />
            <mxPoint x="195" y="190" as="targetPoint" />
          </mxGeometry>
        </mxCell>
        <mxCell id="g_tPpGAOfdIyaXea1qWz-94" value="&amp;lt;Connect&amp;gt;&amp;lt;Connect&amp;gt;" style="resizable=0;html=1;align=left;verticalAlign=top;labelBackgroundColor=none;fontSize=10;" connectable="0" vertex="1" parent="g_tPpGAOfdIyaXea1qWz-93">
          <mxGeometry x="-1" relative="1" as="geometry">
            <mxPoint x="30" as="offset" />
          </mxGeometry>
        </mxCell>
        <mxCell id="g_tPpGAOfdIyaXea1qWz-96" value="" style="endArrow=none;dashed=1;html=1;dashPattern=1 3;strokeWidth=2;rounded=0;fillColor=#dae8fc;strokeColor=#6c8ebf;" edge="1" parent="1">
          <mxGeometry width="50" height="50" relative="1" as="geometry">
            <mxPoint x="195" y="190" as="sourcePoint" />
            <mxPoint x="255" y="190" as="targetPoint" />
          </mxGeometry>
        </mxCell>
        <mxCell id="g_tPpGAOfdIyaXea1qWz-97" value="" style="endArrow=none;html=1;rounded=0;fillColor=#f8cecc;strokeColor=#b85450;" edge="1" parent="1" source="g_tPpGAOfdIyaXea1qWz-98">
          <mxGeometry width="50" height="50" relative="1" as="geometry">
            <mxPoint x="168.38" y="790" as="sourcePoint" />
            <mxPoint x="538" y="805" as="targetPoint" />
          </mxGeometry>
        </mxCell>
        <mxCell id="g_tPpGAOfdIyaXea1qWz-100" value="" style="endArrow=none;html=1;rounded=0;fillColor=#f8cecc;strokeColor=#b85450;" edge="1" parent="1" target="g_tPpGAOfdIyaXea1qWz-98">
          <mxGeometry width="50" height="50" relative="1" as="geometry">
            <mxPoint x="170" y="805" as="sourcePoint" />
            <mxPoint x="537.8800000000002" y="790" as="targetPoint" />
          </mxGeometry>
        </mxCell>
        <mxCell id="g_tPpGAOfdIyaXea1qWz-98" value="Distributes cards to room members" style="html=1;dropTarget=0;whiteSpace=wrap;" vertex="1" parent="1">
          <mxGeometry x="246.25" y="790" width="213.75" height="30" as="geometry" />
        </mxCell>
        <mxCell id="g_tPpGAOfdIyaXea1qWz-101" value="..." style="text;html=1;align=center;verticalAlign=middle;resizable=0;points=[];autosize=1;strokeColor=none;fillColor=none;fontSize=26;" vertex="1" parent="1">
          <mxGeometry x="328.13" y="840" width="50" height="40" as="geometry" />
        </mxCell>
      </root>
    </mxGraphModel>
  </diagram>
</mxfile>
